<?xml version="1.0" encoding="UTF-8"?><svg id="b" xmlns="http://www.w3.org/2000/svg" viewBox="0 0 1809.93 267"><defs><style>.d{fill:#fff;}</style></defs><g id="c"><g><g><path class="d" d="m227.74,110.98h-43.28c-1.56,0-3.16,1.26-3.58,2.82l-31.26,116.66c-.42,1.56.51,2.82,2.07,2.82h43.28c1.56,0,3.16-1.26,3.58-2.82l31.26-116.66c.42-1.56-.51-2.82-2.07-2.82Z"/><path class="d" d="m558.07,121.99c-16.99-10.47-42.46-15.71-68.48-15.71-43.85,0-80.23,15.14-87.64,42.79-7.74,28.88,26.34,37.86,67.21,41.2,21.64,1.76,26.23,3.7,25.09,7.92-1.18,4.4-9.12,6.52-24.62,6.52-24.44,0-44.81-6.79-57.24-15.56-.95-.67-2.46-.45-3.62.51l-27.6,22.96c-1.57,1.3-1.85,3.4-.59,4.33,18.11,13.46,45.91,21.03,79.37,21.03,49.71,0,80.32-17.61,87.68-45.08,8.07-30.11-21.99-37.86-66.22-41.38-18.71-1.41-27.46-2.64-26.37-6.69,1.27-4.75,14.41-5.81,25.94-5.81,18.3,0,34.03,3.07,46.75,10.92.98.61,2.48.32,3.59-.65l26.34-22.96c1.57-1.37,1.76-3.51.38-4.36l.03.02Z"/><path class="d" d="m135.86,160.6h-68.11l3.84-14.33h83.66c1.56,0,3.16-1.26,3.58-2.82l7.94-29.65c.42-1.56-.51-2.82-2.07-2.82H34.94c-1.56,0-3.16,1.26-3.58,2.82L.1,230.46c-.42,1.56.51,2.82,2.07,2.82h43.28c1.56,0,3.16-1.26,3.58-2.82l8.33-31.09-8.15-4.7h77.52c1.56,0,3.16-1.26,3.58-2.82l7.62-28.43c.42-1.56-.51-2.82-2.07-2.82h0Z"/><path class="d" d="m381.99,155.36c8.15-30.4-15.54-44.38-49.44-44.38h-85.06c-1.56,0-3.16,1.26-3.58,2.82l-31.26,116.66c-.42,1.56.51,2.82,2.07,2.82h42.93c1.56,0,3.16-1.26,3.58-2.82l6.97-26.02-8.15-4.7h31.25l17.87,32.51c.36.65,1.06,1.04,1.91,1.04h47.73c2.41,0,4.47-2.83,3.39-4.66l-20.09-33.95c19.38-6.46,34.55-19.39,39.89-39.31h-.01Zm-49.82,1.39c-2.43,9.08-9.92,12.23-19.35,12.23h-35.12l6.55-24.46h35.12c9.43,0,15.23,3.14,12.8,12.23h0Z"/><path class="d" d="m722.07,110.98h-135.53c-1.56,0-3.16,1.26-3.58,2.82l-8.09,30.17c-.42,1.56.51,2.82,2.07,2.82h43.3l-22.42,83.66c-.42,1.56.51,2.82,2.07,2.82h43.28c1.56,0,3.16-1.26,3.58-2.82l21.16-78.96-8.15-4.7h52.71c1.56,0,3.16-1.26,3.58-2.82l8.08-30.17c.42-1.56-.51-2.82-2.07-2.82h0Z"/><path class="d" d="m890.9,196.94h-83.66l22.28-83.14c.42-1.56-.51-2.82-2.07-2.82h-43.28c-1.56,0-3.16,1.26-3.58,2.82l-31.26,116.66c-.42,1.56.51,2.82,2.07,2.82h129.76c1.56,0,3.16-1.26,3.58-2.82l8.23-30.7c.42-1.56-.51-2.82-2.07-2.82h0Z"/><path class="d" d="m976.96,110.98h-43.28c-1.56,0-3.16,1.26-3.58,2.82l-31.26,116.66c-.42,1.56.51,2.82,2.07,2.82h43.28c1.56,0,3.16-1.26,3.58-2.82l31.26-116.66c.42-1.56-.51-2.82-2.07-2.82Z"/><path class="d" d="m1135.16,159.46h-70.78c-1.56,0-3.16,1.26-3.58,2.82l-6.27,23.41c-.42,1.56.51,2.82,2.07,2.82h28.17l-2.59,9.68c-9,3.35-16.2,4.58-25.18,4.58-25.18,0-34.47-11.97-29.47-30.64,4.91-18.31,20-29.94,45.7-29.94,12.34,0,20.06,2.53,28.01,9.53.81.71,2.17.69,3.34-.05l34.59-21.76c1.77-1.11,2.4-3.32,1.26-4.46-11.11-11.01-30.53-19.18-59.69-19.18-52.3,0-91.76,23.07-103.22,65.86-11.46,42.79,15.64,65.86,68.11,65.86,31.32,0,57.9-8.33,76.93-23.83.64-.52,1.1-1.23,1.3-1.96l13.38-49.93c.42-1.56-.51-2.82-2.07-2.82h0Z"/><path class="d" d="m1316.01,110.98h-43.28c-1.56,0-3.16,1.26-3.58,2.82l-10.39,38.76h-55.91l10.39-38.76c.42-1.56-.51-2.82-2.07-2.82h-43.28c-1.56,0-3.16,1.26-3.58,2.82l-31.26,116.66c-.42,1.56.51,2.82,2.07,2.82h43.28c1.56,0,3.16-1.26,3.58-2.82l9.59-35.8-8.15-4.7h65.32l-10.85,40.51c-.42,1.56.51,2.82,2.07,2.82h43.28c1.56,0,3.16-1.26,3.58-2.82l31.26-116.66c.42-1.56-.51-2.82-2.07-2.82h0Z"/><path class="d" d="m1471.3,110.98h-135.53c-1.56,0-3.16,1.26-3.58,2.82l-8.09,30.17c-.42,1.56.51,2.82,2.07,2.82h43.3l-22.42,83.66c-.42,1.56.51,2.82,2.07,2.82h43.28c1.56,0,3.16-1.26,3.58-2.82l21.16-78.96-8.15-4.7h52.71c1.56,0,3.16-1.26,3.58-2.82l8.09-30.17c.42-1.56-.51-2.82-2.07-2.82h0Z"/></g><path class="d" d="m1701.44,191.71l31.54-106.26c.56-1.87-1.6-3.36-3.16-2.19l-1.16.88-86.21,65.3v-.05L1609.63,1.58c-.48-2.14-3.54-2.1-3.96.06h0l-.03.14-31.11,162.6c-.29,1.5-2.07,2.15-3.26,1.19l-32.5-26.46c-1.57-1.28-3.84.3-3.19,2.22l17.17,50.29c.45,1.31-.53,2.67-1.91,2.67h-65.69c-1.96,0-2.77,2.51-1.18,3.66l17.29,12.46,23.48,17.04,5.73,4.17c.96.7,1.11,2.06.34,2.96-8.14,9.52-14.94,20.22-20.14,31.79-.1.21-.15.42-.16.62,8.22-10.91,17.88-20.68,28.71-29.02,7.53-5.81,15.62-10.92,24.16-15.24,1.94-.98,3.89-1.92,5.87-2.81,16.07-7.29,33.63-11.85,52.09-13.12,1.65-.06,3.27-.1,4.87-.1,10.22,0,20.05.69,29.37,1.87,2.72.35,5.4.74,8.02,1.16.03,0,.05,0,.07.01,28.6,6.08,54.21,20.18,74.39,39.87,5.53,5.39,10.66,11.21,15.32,17.39-.03-.2-.07-.41-.16-.62-2.85-6.33-6.18-12.4-9.95-18.17-.59-.9-.38-2.11.49-2.75l63.67-46.29h0l1.66-1.21c1.58-1.15.77-3.65-1.19-3.65h-104.53c-1.35,0-2.32-1.3-1.94-2.6h0Z"/></g></g></svg>