<svg width="517" height="750" viewBox="0 0 517 750" fill="none" xmlns="http://www.w3.org/2000/svg">
<path d="M493.549 1H77.559C71.8699 1 67.1194 5.33804 66.6042 11.0038L1.9958 721.504C1.41001 727.946 6.48212 733.5 12.9506 733.5H428.941C434.63 733.5 439.381 729.162 439.896 723.496L504.504 12.9962C505.09 6.55429 500.018 1 493.549 1Z" fill="#1A172C" stroke="#1B182E" stroke-width="2"/>
<path d="M447.86 738.497L515.584 25.4293C515.873 22.3884 514.884 19.3643 512.855 17.0812L502.731 5.692C500.643 3.34363 497.651 2 494.509 2H91.9504C86.3454 2 81.6367 6.21449 81.0177 11.7853L2.01759 722.786C1.66072 725.998 2.73426 729.204 4.95317 731.554L15.8324 743.073C17.8981 745.26 20.7695 746.506 23.7779 746.52L436.857 748.457C442.549 748.484 447.321 744.164 447.86 738.497Z" fill="url(#paint0_linear_2_10)" stroke="black" stroke-width="2"/>
<path d="M77.559 2.5H493.549C499.136 2.5 503.516 7.29688 503.01 12.8603L438.402 723.36C437.957 728.253 433.854 732 428.941 732H12.9506C7.36418 732 2.98373 727.203 3.48963 721.64L68.0981 11.1396C68.543 6.24649 72.6457 2.5 77.559 2.5Z" fill="#F5F5F5" stroke="#171528"/>
<defs>
<linearGradient id="paint0_linear_2_10" x1="258.75" y1="3" x2="258.75" y2="747.5" gradientUnits="userSpaceOnUse">
<stop stop-color="#483C7A"/>
<stop offset="0.765625" stop-color="#1A172C"/>
</linearGradient>
</defs>
</svg>
