<?xml version="1.0" encoding="UTF-8"?>
<svg width="124px" height="148px" viewBox="0 0 124 148" version="1.1" xmlns="http://www.w3.org/2000/svg" xmlns:xlink="http://www.w3.org/1999/xlink">
    <!-- Generator: Sketch 63.1 (92452) - https://sketch.com -->
    <title>Group 27</title>
    <desc>Created with Sketch.</desc>
    <defs>
        <linearGradient x1="50%" y1="64.2369209%" x2="50%" y2="0%" id="linearGradient-1">
            <stop stop-color="#C300BD" offset="0%"></stop>
            <stop stop-color="#2F7AD1" offset="100%"></stop>
        </linearGradient>
        <linearGradient x1="1.01615287%" y1="50%" x2="97.7870175%" y2="50%" id="linearGradient-2">
            <stop stop-color="#FFFFFF" stop-opacity="0" offset="0%"></stop>
            <stop stop-color="#FFFFFF" stop-opacity="0.8" offset="50.6308066%"></stop>
            <stop stop-color="#FFFFFF" stop-opacity="0" offset="100%"></stop>
        </linearGradient>
        <radialGradient cx="50%" cy="50%" fx="50%" fy="50%" r="46.4555732%" gradientTransform="translate(0.500000,0.500000),scale(1.000000,0.861111),rotate(90.000000),scale(1.000000,1.019754),translate(-0.500000,-0.500000)" id="radialGradient-3">
            <stop stop-color="#FFFFFF" stop-opacity="0.8" offset="0%"></stop>
            <stop stop-color="#FFFFFF" stop-opacity="0" offset="100%"></stop>
        </radialGradient>
        <linearGradient x1="1.01615287%" y1="50%" x2="97.7870175%" y2="50%" id="linearGradient-4">
            <stop stop-color="#FFFFFF" stop-opacity="0" offset="0%"></stop>
            <stop stop-color="#FFFFFF" stop-opacity="0.8" offset="50.6308066%"></stop>
            <stop stop-color="#FFFFFF" stop-opacity="0" offset="100%"></stop>
        </linearGradient>
    </defs>
    <g id="Item-Card-+-Loot-screen" stroke="none" stroke-width="1" fill="none" fill-rule="evenodd">
        <g id="Group-27">
            <g id="Group-24-Copy-4">
                <polygon id="Rectangle-Copy-257" fill="url(#linearGradient-1)" points="0 0 124 0 124 144 0 144"></polygon>
                <polygon id="Rectangle-Copy-104" fill-opacity="0.3" fill="#000000" points="2 144 122 144 122 148 2 148"></polygon>
            </g>
            <rect id="Rectangle-Copy-145" fill="url(#linearGradient-2)" x="0" y="-1.46549439e-13" width="124" height="2.32258065"></rect>
            <rect id="Rectangle-Copy-151" fill="url(#radialGradient-3)" x="5" y="3" width="112" height="130.064516"></rect>
            <path d="M63.991036,11.6129032 L63.9919256,15.151471 C63.9955982,30.1898827 64.008583,88.0298784 63.991036,88.0291228 C62.8127847,87.9783834 60.7508449,89.75896 60.7508449,93.2167075 C60.7508449,96.674455 62.8127847,98.3960784 63.991036,98.4023653 L63.9919979,100.856745 C63.9923818,103.877515 63.9923818,109.686685 63.9919979,118.284255 L63.991036,134.709677 L63.8179579,134.704677 C62.3289615,134.618403 61.1366826,133.426124 61.0504082,131.937127 L61.0454078,131.764049 L61.0454078,107.392509 L57.5106539,107.046734 L57.5106539,121.389843 C57.5106539,123.016669 56.1918512,124.335471 54.5650257,124.335471 C52.9963011,124.335471 51.7139906,123.109187 51.6243979,121.562921 L51.6193975,121.389843 L51.6193975,107.046734 C47.1093654,106.590315 43.3913179,105.440149 40.465255,103.596237 C33.6251346,99.8508959 31,91.8691419 31,84.226564 C31,78.3483933 31.7846512,72.877608 32.8193761,70.0560861 C35.1705687,63.6447772 39.1477725,58.9151219 44.7509876,55.8671204 C44.3103547,55.8715084 41.6022832,55.8726407 40.2339139,55.872933 L39.4440859,55.8730346 C37.1423857,55.8730346 37.0888578,51.9144841 39.2835022,51.7303655 L39.4440859,51.7237376 L44.7462167,51.7237376 L37.3821462,30.9772527 L35.0256436,24.4075324 C34.6328932,23.2549499 34.7310808,22.4481422 35.3202064,21.9871092 C35.8746776,21.5531958 36.6900764,21.6297687 37.7664029,22.2168281 L37.9712718,22.3328839 L41.5060257,24.7533072 C43.0719309,25.9243224 45.1338706,27.3074214 47.6918449,28.9026042 C48.8700962,29.5941537 50.0483475,29.9399284 50.932036,29.5941537 C51.8157244,29.2483789 52.6838533,27.8835447 52.6994129,27.8652799 C55.6591204,23.1647908 58.4083734,18.7849774 60.9471719,14.7258395 C62.1909138,12.6505486 63.2055351,11.6129032 63.991036,11.6129032 Z M64.008964,11.6129032 C64.7944649,11.6129032 65.8090862,12.6505486 67.0528281,14.7258395 C69.5916266,18.7849774 72.3408796,23.1647908 75.3005871,27.8652799 C75.3161467,27.8835447 76.1842756,29.2483789 77.067964,29.5941537 C77.9516525,29.9399284 79.1299038,29.5941537 80.3081551,28.9026042 C82.8661294,27.3074214 84.9280691,25.9243224 86.4939743,24.7533072 L86.4939743,24.7533072 L90.0287282,22.3328839 L90.2335971,22.2168281 C91.3099236,21.6297687 92.1253224,21.5531958 92.6797936,21.9871092 C93.2689192,22.4481422 93.3671068,23.2549499 92.9743564,24.4075324 L92.9743564,24.4075324 L90.6178538,30.9772527 L83.2537833,51.7237376 L88.5559141,51.7237376 L88.7164978,51.7303655 C90.9111422,51.9144841 90.8576143,55.8730346 88.5559141,55.8730346 L88.5559141,55.8730346 L87.7660861,55.872933 C86.3977168,55.8726407 83.6896453,55.8715084 83.2490124,55.8671204 C88.8522275,58.9151219 92.8294313,63.6447772 95.1806239,70.0560861 C96.2153488,72.877608 97,78.3483933 97,84.226564 C97,91.8691419 94.3748654,99.8508959 87.534745,103.596237 C84.6086821,105.440149 80.8906346,106.590315 76.3806025,107.046734 L76.3806025,107.046734 L76.3806025,121.389843 L76.3756021,121.562921 C76.2860094,123.109187 75.0036989,124.335471 73.4349743,124.335471 C71.8081488,124.335471 70.4893461,123.016669 70.4893461,121.389843 L70.4893461,121.389843 L70.4893461,107.046734 L66.9545922,107.392509 L66.9545922,131.764049 L66.9495918,131.937127 C66.8633174,133.426124 65.6710385,134.618403 64.1820421,134.704677 L64.1820421,134.704677 L64.008964,134.709677 L64.0080021,118.284255 C64.0076182,109.686685 64.0076182,103.877515 64.0080021,100.856745 L64.008964,98.4023653 C65.1872153,98.3960784 67.2491551,96.674455 67.2491551,93.2167075 C67.2491551,89.75896 65.1872153,87.9783834 64.008964,88.0291228 C63.991417,88.0298784 64.0044018,30.1898827 64.0080744,15.151471 Z M50.7907432,61.0659427 C46.9867613,61.0659427 44.0157984,69.5223089 44.0157984,79.7377791 C44.0157984,89.9532494 46.9867613,98.0638408 50.7907432,98.0638408 C54.5947252,98.0638408 57.5656881,89.9532494 57.5656881,79.7377791 C57.5656881,69.5223089 54.5947252,61.0659427 50.7907432,61.0659427 Z M77.2092568,61.0659427 C73.4052748,61.0659427 70.4343119,69.5223089 70.4343119,79.7377791 C70.4343119,89.9532494 73.4052748,98.0638408 77.2092568,98.0638408 C81.0132387,98.0638408 83.9842016,89.9532494 83.9842016,79.7377791 C83.9842016,69.5223089 81.0132387,61.0659427 77.2092568,61.0659427 Z" id="Combined-Shape-Copy-18" fill-opacity="0.15" fill="#FFFFFF"></path>
            <polygon id="Rectangle-Copy-152" fill-opacity="0.5" fill="#000000" transform="translate(62.000000, 141.000000) scale(-1, 1) translate(-62.000000, -141.000000) " points="0 138 124 138 124 144 0 144"></polygon>
            <rect id="Rectangle-Copy-153" fill="url(#linearGradient-4)" x="0" y="136" width="124" height="2"></rect>
        </g>
    </g>
</svg>