<?xml version="1.0" encoding="UTF-8"?><svg id="b" xmlns="http://www.w3.org/2000/svg" viewBox="0 0 1790.85 446.53"><defs><style>.d{fill:#fff;}</style></defs><g id="c"><g><g><path class="d" d="m304.26,206.69L355.33,12.53c.68-2.59,3.3-4.7,5.85-4.7h70.71c2.55,0,4.06,2.1,3.38,4.7l-51.07,194.16c-.68,2.59-3.3,4.7-5.85,4.7h-70.71c-2.55,0-4.06-2.1-3.38-4.7"/><path class="d" d="m954.61,144.19c-12.03,45.72-62.05,75.03-143.27,75.03-54.67,0-100.08-12.61-129.68-35.01-2.06-1.56-1.6-5.04.96-7.21l45.09-38.21c1.89-1.6,4.35-1.97,5.91-.85,20.31,14.6,53.59,25.89,93.53,25.89,25.32,0,38.29-3.52,40.22-10.84,1.85-7.03-5.64-10.26-41-13.19-66.79-5.57-122.46-20.52-109.82-68.58C728.65,25.21,788.09,0,859.74,0c42.51,0,84.13,8.72,111.89,26.15,2.26,1.42,1.94,4.98-.62,7.25l-43.04,38.2c-1.83,1.62-4.26,2.09-5.87,1.08-20.78-13.07-46.5-18.18-76.39-18.18-18.84,0-40.3,1.76-42.38,9.67-1.77,6.74,12.51,8.79,43.09,11.14,72.27,5.86,121.38,18.76,108.2,68.87"/><path class="d" d="m328.9,7.83H116.88c-2.55,0-5.16,2.1-5.85,4.7l-51.07,194.16c-.68,2.59.83,4.7,3.38,4.7h70.71c2.55,0,5.16-2.1,5.85-4.7l13.61-51.74-13.31-7.83h126.66c2.55,0,5.16-2.1,5.85-4.7l12.45-47.31c.68-2.59-.83-4.7-3.38-4.7h-111.29l6.27-23.84h136.7c2.55,0,5.16-2.1,5.85-4.7l12.98-49.35c.68-2.59-.83-4.7-3.38-4.7"/><path class="d" d="m651.59,203.63l-32.83-56.51c31.66-10.76,56.45-32.28,65.17-65.43,13.31-50.6-25.39-73.86-80.77-73.86h-138.99c-2.55,0-5.16,2.1-5.85,4.7l-51.07,194.16c-.68,2.59.83,4.7,3.38,4.7h70.14c2.55,0,5.16-2.1,5.85-4.7l11.39-43.31-13.31-7.83h51.06l29.2,54.11c.59,1.09,1.73,1.72,3.12,1.72h77.98c3.94,0,7.31-4.71,5.54-7.76m-80.68-99.25h-57.38l10.71-40.71h57.38c15.41,0,24.89,5.23,20.91,20.36-3.98,15.12-16.2,20.36-31.62,20.36"/><path class="d" d="m1012.3,12.53l-13.21,50.22c-.68,2.59.83,4.7,3.38,4.7h70.75l-36.63,139.25c-.68,2.59.83,4.7,3.38,4.7h70.71c2.55,0,5.16-2.1,5.85-4.7l34.57-131.42-13.31-7.83h86.13c2.55,0,5.16-2.1,5.85-4.7l13.21-50.22c.68-2.59-.83-4.7-3.38-4.7h-221.44c-2.55,0-5.17,2.1-5.85,4.7"/><path class="d" d="m234.85,382.91l-13.44,51.09c-.68,2.59-3.3,4.7-5.85,4.7H3.54c-2.55,0-4.06-2.1-3.38-4.7l51.07-194.16c.68-2.59,3.3-4.7,5.85-4.7h70.71c2.55,0,4.06,2.1,3.38,4.7l-36.4,138.37h136.7c2.55,0,4.06,2.1,3.38,4.7"/><path class="d" d="m244.47,434l51.07-194.16c.68-2.59,3.3-4.7,5.85-4.7h70.71c2.55,0,4.06,2.1,3.38,4.7l-51.07,194.16c-.68,2.59-3.3,4.7-5.85,4.7h-70.71c-2.55,0-4.06-2.1-3.38-4.7"/><path class="d" d="m612.09,403.61c-.32,1.21-1.07,2.38-2.12,3.26-31.08,25.79-74.51,39.66-125.69,39.66-85.74,0-130.01-38.39-111.28-109.61,18.73-71.22,83.21-109.61,168.66-109.61,47.65,0,79.38,13.6,97.53,31.92,1.87,1.89.83,5.57-2.05,7.42l-56.52,36.22c-1.92,1.23-4.14,1.27-5.46.08-13-11.65-25.6-15.86-45.77-15.86-42,0-66.66,19.34-74.67,49.82-8.17,31.07,7.01,51,48.16,51,14.67,0,26.43-2.05,41.13-7.62l4.24-16.12h-46.03c-2.55,0-4.06-2.1-3.38-4.7l10.25-38.96c.68-2.59,3.3-4.7,5.85-4.7h115.64c2.55,0,4.06,2.1,3.38,4.7l-21.86,83.1h0Z"/><path class="d" d="m849.52,239.84l-16.97,64.51h-91.35l16.97-64.51c.68-2.59-.83-4.7-3.38-4.7h-70.71c-2.55,0-5.16,2.1-5.85,4.7l-51.07,194.16c-.68,2.59.83,4.7,3.38,4.7h70.71c2.55,0,5.16-2.1,5.85-4.7l15.67-59.59-13.31-7.83h106.72l-17.73,67.42c-.68,2.59.83,4.7,3.38,4.7h70.71c2.55,0,5.16-2.1,5.85-4.7l51.07-194.16c.68-2.59-.83-4.7-3.38-4.7h-70.71c-2.55,0-5.17,2.1-5.85,4.7"/><path class="d" d="m952.51,239.84l-13.21,50.22c-.68,2.59.83,4.7,3.38,4.7h70.75l-36.63,139.25c-.68,2.59.83,4.7,3.38,4.7h70.71c2.55,0,5.16-2.1,5.85-4.7l34.57-131.42-13.31-7.83h86.13c2.55,0,5.16-2.1,5.85-4.7l13.21-50.22c.68-2.59-.83-4.7-3.38-4.7h-221.44c-2.55,0-5.17,2.1-5.85,4.7"/></g><path class="d" d="m1612.56,322.82l51.83-174.6c.91-3.07-2.63-5.53-5.19-3.59l-1.91,1.45-141.65,107.3-.02-.07-53.92-242.88c-.78-3.52-5.82-3.45-6.5.09h0l-.04.23-51.12,267.19c-.47,2.47-3.41,3.54-5.36,1.95l-53.4-43.48c-2.59-2.11-6.32.49-5.24,3.65l28.22,82.63c.74,2.15-.87,4.39-3.14,4.39h-107.94c-3.22,0-4.56,4.13-1.94,6.01l28.41,20.47,38.58,28,9.42,6.84c1.57,1.14,1.82,3.38.55,4.86-13.37,15.65-24.56,33.23-33.1,52.24-.17.35-.24.69-.27,1.02,13.51-17.93,29.39-33.98,47.17-47.69,12.37-9.54,25.66-17.94,39.71-25.05,3.18-1.61,6.4-3.15,9.65-4.62,26.41-11.97,55.25-19.47,85.59-21.56,2.7-.11,5.37-.16,8-.16,16.8,0,32.94,1.13,48.25,3.08,4.46.57,8.87,1.21,13.18,1.9.04,0,.07.01.12.02,46.99,9.99,89.08,33.16,122.24,65.51,9.09,8.86,17.52,18.42,25.18,28.58-.04-.33-.12-.67-.27-1.02-4.68-10.4-10.15-20.38-16.34-29.85-.97-1.49-.63-3.47.81-4.51l104.62-76.06h.01l2.72-1.99c2.6-1.89,1.26-6.01-1.95-6.01h-171.76c-2.22,0-3.81-2.14-3.18-4.26h-.02Z"/></g></g></svg>