<svg width="116" height="118" viewBox="0 0 116 118" fill="none" xmlns="http://www.w3.org/2000/svg">
<path d="M40.6134 3.60797C43.2311 1.20007 46.9307 0.363732 50.3295 1.41155L74.1266 8.74789L97.8894 16.1752C101.287 17.2372 103.864 20.0253 104.656 23.4959L110.189 47.7541L115.628 72.0338C116.406 75.5074 115.279 79.1329 112.669 81.553L94.4113 98.4794L76.0837 115.338C73.4661 117.746 69.7665 118.583 66.3676 117.535L42.5705 110.198L18.8077 102.771C15.4101 101.709 12.8331 98.9211 12.0414 95.4505L6.50788 71.1922L1.069 46.9126C0.290865 43.4389 1.41799 39.8135 4.02847 37.3933L22.2859 20.467L40.6134 3.60797Z" fill="white"/>
</svg>
